<svg width="9" height="18" viewBox="0 0 9 18" fill="none" xmlns="http://www.w3.org/2000/svg">
<path d="M0.686279 16.5268C0.686525 16.2477 0.797588 15.9802 0.995051 15.7829L6.37891 10.3991C6.54187 10.2362 6.67114 10.0427 6.75933 9.82986C6.84753 9.61698 6.89292 9.38881 6.89292 9.15838C6.89292 8.92795 6.84753 8.69978 6.75933 8.4869C6.67114 8.27401 6.54187 8.08059 6.37891 7.91768L1.00207 2.53733C0.810323 2.3388 0.704224 2.0729 0.706622 1.7969C0.709021 1.52091 0.819725 1.25689 1.01489 1.06173C1.21006 0.86656 1.47407 0.755856 1.75007 0.753458C2.02606 0.751059 2.29196 0.857159 2.49049 1.0489L7.86733 6.42504C8.5903 7.14944 8.99634 8.13107 8.99634 9.15452C8.99634 10.178 8.5903 11.1596 7.86733 11.884L2.48347 17.2679C2.33647 17.4149 2.14919 17.5152 1.94526 17.556C1.74133 17.5967 1.5299 17.5762 1.33764 17.4969C1.14538 17.4176 0.980911 17.2832 0.864987 17.1105C0.749062 16.9379 0.686877 16.7348 0.686279 16.5268Z" fill="white"/>
</svg>
