<svg width="11" height="10" viewBox="0 0 11 10" fill="none" xmlns="http://www.w3.org/2000/svg">
<path d="M0.499999 4.99993C0.503649 4.60535 0.662633 4.2281 0.942499 3.94993L4.16 0.724931C4.30052 0.585242 4.49061 0.506836 4.68875 0.506836C4.88689 0.506836 5.07698 0.585242 5.2175 0.724931C5.2878 0.794653 5.34359 0.877604 5.38167 0.968998C5.41974 1.06039 5.43935 1.15842 5.43935 1.25743C5.43935 1.35644 5.41974 1.45447 5.38167 1.54586C5.34359 1.63726 5.2878 1.72021 5.2175 1.78993L2.75 4.24993H10.25C10.4489 4.24993 10.6397 4.32895 10.7803 4.4696C10.921 4.61025 11 4.80102 11 4.99993C11 5.19884 10.921 5.38961 10.7803 5.53026C10.6397 5.67091 10.4489 5.74993 10.25 5.74993H2.75L5.2175 8.21743C5.35873 8.35767 5.43846 8.54826 5.43917 8.74728C5.43987 8.9463 5.36148 9.13745 5.22125 9.27868C5.08102 9.41991 4.89042 9.49965 4.6914 9.50035C4.49238 9.50105 4.30123 9.42266 4.16 9.28243L0.942499 6.05743C0.660809 5.77742 0.501674 5.39711 0.499999 4.99993Z" fill="#545050"/>
</svg>
