<svg width="14" height="16" viewBox="0 0 14 16" fill="none" xmlns="http://www.w3.org/2000/svg">
<path d="M7.66665 13.3333C8.55038 13.3323 9.39761 12.9808 10.0225 12.3559C10.6474 11.731 10.9989 10.8837 11 10V4.16201C11.001 3.81158 10.9325 3.46444 10.7984 3.14069C10.6642 2.81694 10.4672 2.52304 10.2186 2.27601L8.72398 0.781345C8.47695 0.532794 8.18305 0.335747 7.8593 0.201625C7.53555 0.0675032 7.18841 -0.0010253 6.83798 1.15931e-05H3.66665C2.78292 0.00107016 1.93568 0.3526 1.31079 0.977491C0.685901 1.60238 0.334372 2.44961 0.333313 3.33334V10C0.334372 10.8837 0.685901 11.731 1.31079 12.3559C1.93568 12.9808 2.78292 13.3323 3.66665 13.3333H7.66665ZM1.66665 10V3.33334C1.66665 2.80291 1.87736 2.2942 2.25243 1.91913C2.62751 1.54406 3.13621 1.33334 3.66665 1.33334C3.66665 1.33334 6.94598 1.34268 6.99998 1.34934V2.66668C6.99998 3.0203 7.14046 3.35944 7.3905 3.60949C7.64055 3.85954 7.97969 4.00001 8.33331 4.00001H9.65065C9.65731 4.05401 9.66665 10 9.66665 10C9.66665 10.5304 9.45593 11.0392 9.08086 11.4142C8.70579 11.7893 8.19708 12 7.66665 12H3.66665C3.13621 12 2.62751 11.7893 2.25243 11.4142C1.87736 11.0392 1.66665 10.5304 1.66665 10ZM13.6666 5.33334V12.6667C13.6656 13.5504 13.3141 14.3976 12.6892 15.0225C12.0643 15.6474 11.217 15.999 10.3333 16H4.33331C4.1565 16 3.98693 15.9298 3.86191 15.8047C3.73688 15.6797 3.66665 15.5102 3.66665 15.3333C3.66665 15.1565 3.73688 14.987 3.86191 14.8619C3.98693 14.7369 4.1565 14.6667 4.33331 14.6667H10.3333C10.8637 14.6667 11.3725 14.456 11.7475 14.0809C12.1226 13.7058 12.3333 13.1971 12.3333 12.6667V5.33334C12.3333 5.15653 12.4035 4.98696 12.5286 4.86194C12.6536 4.73692 12.8232 4.66668 13 4.66668C13.1768 4.66668 13.3464 4.73692 13.4714 4.86194C13.5964 4.98696 13.6666 5.15653 13.6666 5.33334Z" fill="#757575"/>
</svg>
