<svg width="17" height="18" viewBox="0 0 17 18" fill="none" xmlns="http://www.w3.org/2000/svg">
<path d="M6.35021 17.5H2.83333C2.08189 17.5 1.36122 17.2015 0.829864 16.6701C0.298511 16.1388 0 15.4181 0 14.6667V11.125C0 10.3736 0.298511 9.65288 0.829864 9.12153C1.36122 8.59018 2.08189 8.29167 2.83333 8.29167H9.10704C9.49039 8.29185 9.86721 8.39098 10.201 8.57948C10.5348 8.76798 10.8143 9.03945 11.0125 9.36763L13.2912 6.86367C13.4796 6.6564 13.7071 6.48831 13.9606 6.36901C14.2141 6.24971 14.4886 6.18153 14.7684 6.16837C15.0483 6.15521 15.328 6.19734 15.5915 6.29233C15.8551 6.38733 16.0973 6.53333 16.3044 6.722C16.7176 7.10162 16.9653 7.62831 16.994 8.18869C17.0228 8.74907 16.8303 9.29834 16.4581 9.71825L11.6415 15.1278C10.9764 15.8737 10.1612 16.4706 9.24937 16.8794C8.3375 17.2882 7.34953 17.4997 6.35021 17.5ZM2.83333 9.70833C2.45761 9.70833 2.09728 9.85759 1.8316 10.1233C1.56592 10.3889 1.41667 10.7493 1.41667 11.125V14.6667C1.41667 15.0424 1.56592 15.4027 1.8316 15.6684C2.09728 15.9341 2.45761 16.0833 2.83333 16.0833H6.35021C7.14915 16.083 7.93901 15.9139 8.66801 15.587C9.39702 15.26 10.0487 14.7828 10.5804 14.1864L15.4006 8.77617C15.5257 8.6352 15.5905 8.45072 15.581 8.26246C15.5714 8.0742 15.4883 7.89722 15.3496 7.76962C15.2085 7.64278 15.0235 7.57595 14.8339 7.58333C14.7399 7.58731 14.6477 7.60996 14.5626 7.64998C14.4774 7.68999 14.4011 7.74655 14.3381 7.81638L11.203 11.2667C11.0654 11.6476 10.8269 11.984 10.513 12.24C10.1991 12.496 9.82165 12.6619 9.42083 12.7202L5.76512 13.2429C5.57914 13.2696 5.39018 13.2213 5.23981 13.1086C5.08943 12.996 4.98997 12.8282 4.96329 12.6423C4.93661 12.4563 4.98491 12.2673 5.09756 12.1169C5.21021 11.9666 5.37797 11.8671 5.56396 11.8404L9.22038 11.3184C9.42334 11.29 9.60797 11.1856 9.73696 11.0264C9.86595 10.8672 9.92969 10.6649 9.9153 10.4604C9.90091 10.256 9.80946 10.0647 9.65943 9.92506C9.5094 9.78545 9.31198 9.70799 9.10704 9.70833H2.83333ZM7.79167 6.92742C7.47062 6.92828 7.15894 6.8193 6.90837 6.61858C5.69571 5.64533 4.25 4.18333 4.25 2.76667C4.23261 2.18468 4.44641 1.61948 4.84463 1.19471C5.24286 0.769934 5.7931 0.520154 6.375 0.5C6.90437 0.502062 7.41226 0.709537 7.79167 1.07871C8.17107 0.709537 8.67897 0.502062 9.20833 0.5C9.79024 0.520154 10.3405 0.769934 10.7387 1.19471C11.1369 1.61948 11.3507 2.18468 11.3333 2.76667C11.3333 4.18333 9.88762 5.64533 8.67425 6.61929C8.42378 6.8196 8.11238 6.92832 7.79167 6.92742ZM6.375 1.91667C6.16912 1.93732 5.97957 2.03795 5.84711 2.1969C5.71465 2.35585 5.64986 2.56044 5.66667 2.76667C5.66667 3.40417 6.48196 4.45958 7.79592 5.51429C9.10137 4.45958 9.91667 3.40417 9.91667 2.76667C9.93347 2.56044 9.86868 2.35585 9.73622 2.1969C9.60376 2.03795 9.41421 1.93732 9.20833 1.91667C9.00246 1.93732 8.81291 2.03795 8.68045 2.1969C8.54799 2.35585 8.48319 2.56044 8.5 2.76667C8.5 2.95453 8.42537 3.1347 8.29253 3.26753C8.1597 3.40037 7.97953 3.475 7.79167 3.475C7.6038 3.475 7.42364 3.40037 7.2908 3.26753C7.15796 3.1347 7.08333 2.95453 7.08333 2.76667C7.10014 2.56044 7.03535 2.35585 6.90289 2.1969C6.77043 2.03795 6.58088 1.93732 6.375 1.91667Z" fill="#757575"/>
</svg>
