<svg width="31" height="48" viewBox="0 0 31 48" fill="none" xmlns="http://www.w3.org/2000/svg">
<path d="M14.6757 9.82104L8.80281 13.1642C8.27513 13.4736 7.85593 13.9894 7.6175 14.6218L0.29089 36.0867C-0.466459 38.0913 0.306007 40.4346 2.01643 41.3201L9.30388 45.094H14.7159L14.6757 9.82104Z" fill="#FAA515"/>
<path d="M30.9995 39.0482V43.1832C30.9995 45.4854 29.3515 47.4123 27.3808 47.4123H12.5041C10.5334 47.4123 8.96582 45.4854 8.96582 43.1832V18.8427C8.96582 18.1166 9.14193 17.4282 9.53749 16.8682L14.0104 10.5346C14.5187 9.81471 15.2435 9.35083 16.0423 9.35083H23.8426C24.6414 9.35083 25.3662 9.81471 25.8746 10.5346L30.3475 16.8682C30.743 17.4282 30.9996 18.1167 30.9996 18.8427V35.7589V39.0482H30.9995Z" fill="#FAD207"/>
<path fill-rule="evenodd" clip-rule="evenodd" d="M18.7306 25.846L18.7307 25.845L18.71 25.8208C18.699 25.8077 18.6879 25.7947 18.6767 25.782L17.8448 24.8091L17.7267 25.0838C17.4515 24.9684 17.1552 24.905 16.8464 24.905H16.766C15.3249 24.905 14.1525 26.2752 14.1525 27.9593C14.1525 28.3082 14.2035 28.6431 14.2961 28.9557L14.0518 29.1021L14.9133 30.1113C14.9169 30.1155 14.9206 30.1198 14.9242 30.1241L14.9358 30.1376L14.9362 30.1373C15.4079 30.6788 16.054 31.0137 16.766 31.0137H16.8464C18.2875 31.0137 19.4599 29.6435 19.4599 27.9593C19.4599 27.1398 19.1818 26.3952 18.7306 25.846ZM16.8464 29.604H16.766C15.9901 29.604 15.3587 28.8662 15.3587 27.9593C15.3587 27.0525 15.9901 26.3147 16.766 26.3147H16.8464C17.6223 26.3147 18.2537 27.0525 18.2537 27.9593C18.2537 28.8662 17.6223 29.604 16.8464 29.604Z" fill="#F8C201"/>
<path fill-rule="evenodd" clip-rule="evenodd" d="M26.2794 25.2052L25.4753 24.2654L14.3291 37.2914L15.1333 38.2312C15.2511 38.3688 15.4055 38.4377 15.5598 38.4377C15.7141 38.4377 15.8685 38.3689 15.9863 38.2312L26.2794 26.2019C26.5149 25.9267 26.5149 25.4803 26.2794 25.2052Z" fill="#F8C201"/>
<path fill-rule="evenodd" clip-rule="evenodd" d="M26.4378 33.0768L26.4386 33.0764L25.7733 32.2881L25.8164 32.6077C25.4846 32.4291 25.1159 32.3288 24.7273 32.3288H24.6469C23.2058 32.3288 22.0334 33.699 22.0334 35.3831C22.0334 35.8183 22.1122 36.2323 22.2533 36.6074L21.958 36.5571L22.7583 37.491C22.7868 37.526 22.8161 37.5601 22.8461 37.5935L22.8644 37.6149L22.8646 37.6142C23.3318 38.1242 23.9585 38.4374 24.6469 38.4374H24.7273C26.1685 38.4374 27.3408 37.0672 27.3408 35.3831C27.3408 34.4629 26.9904 33.6373 26.4378 33.0768ZM24.7273 37.0277H24.6469C23.871 37.0277 23.2397 36.2899 23.2397 35.3831C23.2397 34.4763 23.871 33.7385 24.6469 33.7385H24.7273C25.5033 33.7385 26.1346 34.4763 26.1346 35.3831C26.1346 36.2899 25.5033 37.0277 24.7273 37.0277Z" fill="#F8C201"/>
<path d="M14.7565 37.4978C14.6022 37.4978 14.4478 37.429 14.33 37.2913C14.0944 37.0161 14.0944 36.5698 14.33 36.2946L24.6231 24.2653C24.8587 23.99 25.2405 23.99 25.476 24.2653C25.7116 24.5406 25.7116 24.9869 25.476 25.262L15.1829 37.2913C15.0652 37.429 14.9108 37.4978 14.7565 37.4978Z" fill="#F5F5F5"/>
<path d="M16.0425 30.0735H15.9621C14.521 30.0735 13.3486 28.7033 13.3486 27.0192C13.3486 25.3351 14.521 23.9648 15.9621 23.9648H16.0425C17.4837 23.9648 18.656 25.3351 18.656 27.0192C18.656 28.7033 17.4837 30.0735 16.0425 30.0735ZM15.9621 25.3745C15.1862 25.3745 14.5549 26.1124 14.5549 27.0192C14.5549 27.926 15.1862 28.6638 15.9621 28.6638H16.0425C16.8185 28.6638 17.4498 27.926 17.4498 27.0192C17.4498 26.1124 16.8185 25.3745 16.0425 25.3745H15.9621Z" fill="#F5F5F5"/>
<path d="M23.9234 37.4975H23.843C22.4019 37.4975 21.2295 36.1273 21.2295 34.4432C21.2295 32.7591 22.4019 31.3889 23.843 31.3889H23.9234C25.3645 31.3889 26.5369 32.7591 26.5369 34.4432C26.5369 36.1273 25.3645 37.4975 23.9234 37.4975ZM23.843 32.7986C23.0671 32.7986 22.4357 33.5364 22.4357 34.4432C22.4357 35.35 23.0671 36.0879 23.843 36.0879H23.9234C24.6993 36.0879 25.3307 35.35 25.3307 34.4432C25.3307 33.5364 24.6993 32.7986 23.9234 32.7986H23.843Z" fill="#F5F5F5"/>
<path d="M21.2534 15.0831C20.9916 15.0831 20.7507 14.8824 20.6743 14.5739C20.5817 14.1999 20.7661 13.8091 21.0861 13.7009C21.1545 13.6778 21.2234 13.6524 21.2908 13.6255C23.1298 12.8918 24.3654 10.8719 24.3654 8.59907V0.704842C24.3654 0.315581 24.6355 0 24.9685 0C25.3016 0 25.5716 0.315581 25.5716 0.704842V8.59907C25.5716 11.475 24.0079 14.0311 21.6804 14.9596C21.595 14.9936 21.5079 15.0257 21.4212 15.055C21.3653 15.074 21.3088 15.0831 21.2534 15.0831Z" fill="#E0A446"/>
<path d="M19.9825 16.8225C18.9405 16.8225 18.0928 15.8318 18.0928 14.614C18.0928 13.3962 18.9405 12.4055 19.9825 12.4055C21.0245 12.4055 21.8723 13.3962 21.8723 14.614C21.8723 15.8318 21.0245 16.8225 19.9825 16.8225Z" fill="#F5F5F5"/>
</svg>
