<svg width="13" height="13" viewBox="0 0 13 13" fill="none" xmlns="http://www.w3.org/2000/svg">
<path d="M12.5955 2.862C12.5955 3.24148 12.4782 3.68112 12.2437 4.18092C12.0091 4.67146 11.5776 5.1944 10.949 5.74973C10.3297 6.30507 9.43843 6.79561 8.27505 7.22137C7.12104 7.64712 5.66681 7.93867 3.91235 8.09602L3.57459 8.12378C3.49954 8.494 3.46201 8.83646 3.46201 9.15115C3.46201 9.83606 3.6262 10.3312 3.95457 10.6367C4.29233 10.9328 4.7802 11.0809 5.41819 11.0809C6.82551 11.0809 8.17184 10.3312 9.4572 8.83183H10.949C10.3673 9.71111 9.48534 10.5811 8.30319 11.4419C7.12104 12.3027 5.71841 12.733 4.0953 12.733C2.96945 12.733 2.00309 12.4369 1.19622 11.8445C0.398741 11.2429 0 10.3636 0 9.20668C0 7.79058 0.398741 6.41613 1.19622 5.08333C1.9937 3.74128 3.08203 2.65375 4.46121 1.82076C5.84038 0.9785 7.34152 0.557373 8.96463 0.557373C10.2688 0.557373 11.1976 0.774878 11.7511 1.20989C12.3141 1.6449 12.5955 2.1956 12.5955 2.862ZM9.62607 2.80647C9.62607 2.50104 9.51818 2.22337 9.30239 1.97347C9.0866 1.71432 8.79106 1.58474 8.41578 1.58474C7.75903 1.58474 7.15388 1.8115 6.60033 2.26502C6.05617 2.70929 5.59645 3.23685 5.22116 3.84772C4.84587 4.45859 4.53626 5.07871 4.29233 5.70808C4.05778 6.33746 3.91235 6.72619 3.85606 6.87428C5.76063 6.55959 7.1961 6.0274 8.16246 5.2777C9.1382 4.528 9.62607 3.70426 9.62607 2.80647Z" fill="#04B23D"/>
</svg>
