<svg width="13" height="16" viewBox="0 0 13 16" fill="none" xmlns="http://www.w3.org/2000/svg">
<path d="M12.2137 5.375L7.375 0.53625C7.25206 0.413146 7.0852 0.343908 6.91125 0.34375H3C2.36182 0.34375 1.74978 0.597264 1.29853 1.04853C0.847264 1.49978 0.59375 2.11182 0.59375 2.75V13.25C0.59375 13.8881 0.847264 14.5002 1.29853 14.9514C1.74978 15.4028 2.36182 15.6562 3 15.6562H10C10.6381 15.6562 11.2502 15.4028 11.7014 14.9514C12.1528 14.5002 12.4062 13.8881 12.4062 13.25V5.8125C12.3993 5.64765 12.3306 5.49145 12.2137 5.375ZM7.59375 2.58375L10.1662 5.15625H7.59375V2.58375ZM10 14.3438H3C2.70992 14.3438 2.43172 14.2285 2.2266 14.0234C2.02149 13.8183 1.90625 13.5401 1.90625 13.25V2.75C1.90625 2.45992 2.02149 2.18172 2.2266 1.9766C2.43172 1.77149 2.70992 1.65625 3 1.65625H6.28125V5.8125C6.28352 5.98585 6.35335 6.15145 6.47594 6.27406C6.59852 6.39665 6.76416 6.46648 6.9375 6.46875H11.0937V13.25C11.0937 13.5401 10.9785 13.8183 10.7734 14.0234C10.5683 14.2285 10.2901 14.3438 10 14.3438Z" fill="#757575"/>
</svg>
