<svg width="20" height="21" viewBox="0 0 20 21" fill="none" xmlns="http://www.w3.org/2000/svg">
<path d="M18.3327 10.5H1.66602" stroke="#757575" stroke-width="1.5" stroke-linecap="round" stroke-linejoin="round"/>
<path d="M4.54102 4.75825L1.66602 10.4999V15.4999C1.66602 15.9419 1.84161 16.3659 2.15417 16.6784C2.46673 16.991 2.89065 17.1666 3.33268 17.1666H16.666C17.108 17.1666 17.532 16.991 17.8445 16.6784C18.1571 16.3659 18.3327 15.9419 18.3327 15.4999V10.4999L15.4577 4.75825C15.3197 4.48057 15.107 4.24689 14.8435 4.08348C14.58 3.92008 14.2761 3.83342 13.966 3.83325H6.03268C5.72261 3.83342 5.41874 3.92008 5.15522 4.08348C4.8917 4.24689 4.679 4.48057 4.54102 4.75825Z" stroke="#757575" stroke-width="1.5" stroke-linecap="round" stroke-linejoin="round"/>
<path d="M5 13.8333H5.00833" stroke="#757575" stroke-width="1.5" stroke-linecap="round" stroke-linejoin="round"/>
<path d="M8.33398 13.8333H8.34232" stroke="#757575" stroke-width="1.5" stroke-linecap="round" stroke-linejoin="round"/>
</svg>
