<svg width="17" height="17" viewBox="0 0 17 17" fill="none" xmlns="http://www.w3.org/2000/svg">
<path d="M16.9996 16.2917C16.9996 16.4796 16.9249 16.6597 16.7921 16.7925C16.6593 16.9254 16.4791 17 16.2913 17H0.709409C0.521565 17 0.341414 16.9254 0.208588 16.7925C0.0757623 16.6597 0.0011414 16.4796 0.0011414 16.2917C0.0011414 16.1039 0.0757623 15.9237 0.208588 15.7909C0.341414 15.658 0.521565 15.5834 0.709409 15.5834H16.2913C16.4791 15.5834 16.6593 15.658 16.7921 15.7909C16.9249 15.9237 16.9996 16.1039 16.9996 16.2917ZM0.207247 6.05836C0.0546314 5.77527 -0.0160733 5.45526 0.00306819 5.13422C0.0222097 4.81318 0.13044 4.50384 0.315612 4.24089C0.618226 3.79688 1.02349 3.43242 1.497 3.17846L6.80972 0.4133C7.3319 0.141765 7.9118 0 8.50035 0C9.08891 0 9.66881 0.141765 10.191 0.4133L15.503 3.18058C15.9765 3.43455 16.3818 3.799 16.6844 4.24302C16.8696 4.50596 16.9778 4.81531 16.9969 5.13635C17.0161 5.45738 16.9454 5.7774 16.7928 6.06048C16.6284 6.3713 16.382 6.63108 16.0803 6.81155C15.7786 6.99201 15.4331 7.08623 15.0816 7.08396H14.8748V12.7503H15.583C15.7709 12.7503 15.951 12.8249 16.0839 12.9577C16.2167 13.0906 16.2913 13.2707 16.2913 13.4586C16.2913 13.6464 16.2167 13.8266 16.0839 13.9594C15.951 14.0922 15.7709 14.1668 15.583 14.1668H1.41768C1.22983 14.1668 1.04968 14.0922 0.916856 13.9594C0.78403 13.8266 0.709409 13.6464 0.709409 13.4586C0.709409 13.2707 0.78403 13.0906 0.916856 12.9577C1.04968 12.8249 1.22983 12.7503 1.41768 12.7503H2.12594V7.08396H1.91913C1.56723 7.08616 1.22149 6.99168 0.919615 6.81082C0.617739 6.62997 0.371324 6.36968 0.207247 6.05836ZM3.54248 12.7503H5.66728V7.08396H3.54248V12.7503ZM7.08382 7.08396V12.7503H9.91689V7.08396H7.08382ZM13.4582 7.08396H11.3334V12.7503H13.4582V7.08396ZM1.4623 5.40178C1.50674 5.48371 1.57287 5.55183 1.65345 5.59868C1.73403 5.64553 1.82594 5.6693 1.91913 5.66738H15.0816C15.1748 5.6693 15.2667 5.64553 15.3473 5.59868C15.4278 5.55183 15.494 5.48371 15.5384 5.40178C15.5708 5.34764 15.5864 5.28514 15.5834 5.22214C15.5804 5.15913 15.5588 5.09842 15.5214 5.04763C15.3498 4.79259 15.1192 4.58267 14.8493 4.43567L9.53726 1.66839C9.21713 1.50224 8.86174 1.41551 8.50106 1.41551C8.14039 1.41551 7.785 1.50224 7.46487 1.66839L2.15286 4.43567C1.883 4.58314 1.65249 4.79325 1.48071 5.04834C1.44324 5.09892 1.4215 5.15942 1.41823 5.22228C1.41495 5.28515 1.43028 5.34758 1.4623 5.40178Z" fill="#757575"/>
</svg>
