<svg width="11" height="13" viewBox="0 0 11 13" fill="none" xmlns="http://www.w3.org/2000/svg">
<path d="M5.4774 13.0042L5.09981 12.6805C4.57928 12.2447 0.0341797 8.31937 0.0341797 5.4481C0.0341797 2.4419 2.4712 0.00488281 5.4774 0.00488281C8.48359 0.00488281 10.9206 2.4419 10.9206 5.4481C10.9206 8.3194 6.37551 12.2447 5.85714 12.6827L5.4774 13.0042ZM5.4774 1.18187C3.12234 1.18453 1.21385 3.09302 1.21119 5.44807C1.21119 7.25187 4.00751 10.1334 5.4774 11.4523C6.94731 10.1329 9.7436 7.24969 9.7436 5.44807C9.74094 3.09302 7.83248 1.18456 5.4774 1.18187Z" fill="#757575"/>
<path d="M5.47747 7.60582C4.28584 7.60582 3.31982 6.6398 3.31982 5.44817C3.31982 4.25654 4.28584 3.29053 5.47747 3.29053C6.6691 3.29053 7.63511 4.25654 7.63511 5.44817C7.63511 6.6398 6.66913 7.60582 5.47747 7.60582ZM5.47747 4.36932C4.88165 4.36932 4.39865 4.85233 4.39865 5.44815C4.39865 6.04396 4.88165 6.52697 5.47747 6.52697C6.07329 6.52697 6.55629 6.04396 6.55629 5.44815C6.55629 4.85233 6.07331 4.36932 5.47747 4.36932Z" fill="#757575"/>
</svg>
