<svg width="417" height="368" viewBox="0 0 417 368" fill="none" xmlns="http://www.w3.org/2000/svg">
<path d="M0 24C0 12.6863 0 7.02944 3.51472 3.51472C7.02944 0 12.6863 0 24 0H417V368H24C12.6863 368 7.02944 368 3.51472 364.485C0 360.971 0 355.314 0 344V24Z" fill="#FFFBE1"/>
<mask id="mask0_1177_9898" style="mask-type:alpha" maskUnits="userSpaceOnUse" x="0" y="0" width="417" height="368">
<path d="M0 24C0 12.6863 0 7.02944 3.51472 3.51472C7.02944 0 12.6863 0 24 0H416.5V368H24C12.6863 368 7.02944 368 3.51472 364.485C0 360.971 0 355.314 0 344V24Z" fill="#FFFBE1"/>
</mask>
<g mask="url(#mask0_1177_9898)">
<path d="M-35.1463 242.028C150.106 226.098 307.451 25.593 362.966 -72.6684C532.215 -80.9795 514.509 69.0243 484.5 145.065C426.151 250.83 271.14 474.219 117.897 521.662C-73.6572 580.965 -266.712 261.94 -35.1463 242.028Z" fill="#FFF8C9"/>
</g>
</svg>
