<svg width="28" height="41" viewBox="0 0 28 41" fill="none" xmlns="http://www.w3.org/2000/svg">
<path d="M26.9873 29.2901C25.7659 36.1984 17.4066 46.9193 4.56362 36.6742C1.43018 34.1747 0.146909 31.2174 0.012913 28.1818C-0.404535 19.063 9.43384 9.20945 10.0368 8.61317H10.0678C10.0678 8.61317 9.65546 4.30072 6.80547 3.79479C6.55074 3.75924 6.30118 3.6843 6.06334 3.57193C4.51724 2.7769 6.80547 0.698972 6.80547 0.698972C8.64018 -0.969393 10.4749 2.32518 11.6963 1.98789C12.9177 1.6506 14.3505 -0.728475 15.1647 0.223156C15.979 1.17479 14.9586 3.79479 16.7933 3.79479C18.628 3.79479 20.8235 2.84316 21.4316 3.79479C22.0398 4.74642 21.4316 8.01087 21.4316 8.01087C21.4316 8.01087 16.9737 6.92071 15.7626 8.56499C15.7626 8.56499 26.2915 20.2435 27.0182 27.4892C27.0905 28.0875 27.08 28.6956 26.9873 29.2901Z" fill="#FDE96C"/>
<path opacity="0.2" d="M21.4575 8.02879C21.4575 8.02879 16.9995 6.93863 15.7884 8.5829C14.1547 8.20345 11.0986 7.51683 10.0781 8.5829C10.0781 8.5829 9.66584 4.27045 6.81585 3.76451C6.56112 3.72897 6.31157 3.65403 6.07373 3.54166C6.29965 3.11705 6.6277 2.77975 7.01685 2.57196C9.07832 1.49987 10.2791 5.43288 11.7067 4.8366C13.1343 4.24033 14.1547 2.33707 15.0721 3.63201C15.9894 4.92695 20.0041 3.4453 21.4575 8.02879Z" fill="#F88E8E"/>
<path opacity="0.2" d="M26.9876 29.29C25.7661 36.1984 17.4069 46.9193 4.56389 36.6742C1.43045 34.1747 0.147179 31.2174 0.0131836 28.1818C0.781083 29.1455 1.69329 29.6213 3.64653 29.5851C7.00673 29.5249 13.99 25.4835 16.974 27.983C19.9579 30.4826 25.0601 30.1634 27.034 27.5072C27.0995 28.1006 27.0838 28.7024 26.9876 29.29Z" fill="#F88E8E"/>
<path d="M9.67101 8.98645C9.67101 8.98645 8.3362 8.083 10.8821 7.2458C13.428 6.40861 17.5819 8.02879 16.6646 9.60681C15.615 8.89183 14.4402 8.46451 13.2288 8.35705C12.0174 8.2496 10.8009 8.46479 9.67101 8.98645Z" fill="#263238"/>
<path d="M13.7578 7.81816C13.7578 7.81816 14.2732 12.4619 15.6235 11.7451C16.9737 11.0284 14.6906 8.61319 14.6906 8.61319C14.6906 8.61319 17.8653 10.9019 18.1694 9.30583C18.4734 7.70974 14.3969 6.89062 13.7578 7.81816ZM15.3915 10.9742C15.1132 11.2091 14.6546 9.13116 14.6546 9.13116C14.7319 9.18537 15.675 10.7032 15.3915 10.9441V10.9742ZM17.3963 9.06492C17.2005 9.4263 15.6235 8.23374 15.6235 8.23374C15.6235 8.23374 17.5922 8.67944 17.3963 9.02275V9.06492Z" fill="#263238"/>
<path d="M15.0565 8.42041C15.0565 8.42041 17.8962 10.4682 19.4011 10.5827C19.4368 10.6712 19.4554 10.7678 19.4554 10.8657C19.4554 10.9636 19.4368 11.0603 19.4011 11.1488C19.4011 11.1488 15.9996 9.94422 15.2781 8.95646C15.2781 8.95646 16.9221 12.0462 18.2054 11.1488C18.3466 11.2666 18.4529 11.433 18.5095 11.6246C18.5095 11.6246 18.0405 12.0703 17.0407 11.6246C16.0409 11.1789 14.7061 8.61315 14.7061 8.61315L15.0565 8.42041Z" fill="#263238"/>
<path d="M13.8513 28.7664L10.6724 23.262V21.9648H11.732C12.1559 21.9648 12.5267 21.9063 12.8446 21.7895C13.1743 21.6609 13.4451 21.4798 13.657 21.2461C13.8807 21.0123 14.0338 20.7318 14.1162 20.4046H10.6724V19.1074H14.0985C14.0279 18.8035 13.9043 18.5347 13.7277 18.301C13.5628 18.0673 13.3391 17.8861 13.0566 17.7576C12.7858 17.6173 12.4561 17.5472 12.0676 17.5472H10.6724V16.25H18.6374V17.5472H15.8646C16.0648 17.7693 16.2296 18.0088 16.3591 18.266C16.5004 18.5231 16.5946 18.8035 16.6417 19.1074H18.6374V20.4046H16.677C16.5593 21.2694 16.2237 21.9473 15.6704 22.4381C15.117 22.9172 14.4047 23.2445 13.5334 23.4198L16.9949 28.7664H13.8513Z" fill="white"/>
</svg>
