<svg width="209" height="80" viewBox="0 0 209 80" fill="none" xmlns="http://www.w3.org/2000/svg">
<path d="M201.012 20.1016L186.64 26.4956L201.773 41.1541L201.012 20.1016Z" fill="#C7C7C7"/>
<path d="M172.02 32.3665L157.105 37.3593L170.766 53.399L172.02 32.3665Z" fill="#DBDBDB"/>
<path d="M141.958 41.6128L126.58 44.908L138.365 62.3735L141.958 41.6128Z" fill="#A6A6A6"/>
<path d="M111.121 47.2806L95.4511 48.7038L105.051 67.4575L111.121 47.2806Z" fill="#A6A6A6"/>
<path d="M79.8457 48.6492L64.1491 47.6365L70.7368 67.6486L79.8457 48.6492Z" fill="#EBEBEB"/>
<path d="M49.0484 45.2068L33.8545 41.1242L36.3798 62.0456L49.0484 45.2068Z" fill="#C7C7C7"/>
<path d="M19.1933 35.2302L5.39262 27.6908L2.92371 48.6145L19.1933 35.2302Z" fill="#DBDBDB"/>
<path d="M172.021 32.3721L173.477 33.9079L174.455 34.9431L175.673 36.2346L176.645 37.2645L177.87 38.5613L178.841 39.5912L180.065 40.8819L181.037 41.9119L182.256 43.2094L183.233 44.2385L184.451 45.5301L185.423 46.56L186.486 47.6881L186.504 46.1369L186.514 44.7208L186.527 42.9445L186.538 41.5284L186.557 39.7454L186.567 38.3293L186.58 36.547L186.59 35.1309L186.61 33.3538L186.614 31.9385L186.633 30.1614L186.649 28.7386L186.662 26.6208L172.021 32.3721Z" fill="#A6A6A6"/>
<path d="M173.476 33.9081L174.455 34.9432L186.633 30.1616L186.648 28.7388L173.476 33.9081Z" fill="white"/>
<path d="M175.674 36.2348L176.645 37.2647L186.61 33.354L186.614 31.9387L175.674 36.2348Z" fill="white"/>
<path d="M177.869 38.5615L178.841 39.5914L186.58 36.5472L186.59 35.1311L177.869 38.5615Z" fill="white"/>
<path d="M180.065 40.8823L181.036 41.9122L186.556 39.7457L186.566 38.3296L180.065 40.8823Z" fill="white"/>
<path d="M182.255 43.2098L183.232 44.2389L186.527 42.9449L186.537 41.5288L182.255 43.2098Z" fill="white"/>
<path d="M184.451 45.5304L185.423 46.5603L186.503 46.1373L186.514 44.7212L184.451 45.5304Z" fill="white"/>
<path d="M141.959 41.6193L143.251 43.2979L144.113 44.427L145.194 45.8395L146.056 46.9686L147.136 48.3751L147.998 49.5043L149.079 50.9168L149.94 52.0399L151.022 53.4584L151.889 54.5807L152.964 55.994L153.832 57.1163L154.767 58.3459L154.945 56.805L155.103 55.4008L155.3 53.6318L155.452 52.2283L155.655 50.4525L155.813 49.0482L156.011 47.2792L156.168 45.8689L156.366 44.1059L156.524 42.6956L156.721 40.9266L156.879 39.5164L157.119 37.4126L141.959 41.6193Z" fill="#EBEBEB"/>
<path d="M143.25 43.2974L144.112 44.4265L156.721 40.9261L156.878 39.5159L143.25 43.2974Z" fill="white"/>
<path d="M145.193 45.8392L146.056 46.9683L156.366 44.1056L156.523 42.6953L145.193 45.8392Z" fill="white"/>
<path d="M147.136 48.3749L147.998 49.504L156.011 47.2789L156.168 45.8687L147.136 48.3749Z" fill="white"/>
<path d="M149.078 50.9166L149.939 52.0397L155.654 50.4524L155.812 49.0481L149.078 50.9166Z" fill="white"/>
<path d="M151.022 53.4581L151.889 54.5805L155.3 53.6315L155.452 52.228L151.022 53.4581Z" fill="white"/>
<path d="M152.964 55.9938L153.831 57.1162L154.944 56.8049L155.103 55.4006L152.964 55.9938Z" fill="white"/>
<path d="M111.129 47.243L112.218 49.063L112.946 50.2823L113.852 51.8083L114.579 53.0277L115.491 54.5529L116.218 55.7723L117.124 57.2983L117.851 58.5176L118.758 60.0496L119.485 61.263L120.398 62.7942L121.124 64.0076L121.914 65.3409L122.267 63.8328L122.586 62.4509L122.989 60.7169L123.304 59.3417L123.706 57.6017L124.031 56.219L124.429 54.4917L124.749 53.1098L125.152 51.3758L125.466 50.0006L125.869 48.2666L126.194 46.8779L126.672 44.8174L111.129 47.243Z" fill="#C7C7C7"/>
<path d="M112.219 49.063L112.946 50.2823L125.87 48.2666L126.194 46.8779L112.219 49.063Z" fill="white"/>
<path d="M113.852 51.8082L114.579 53.0275L125.153 51.3757L125.467 50.0005L113.852 51.8082Z" fill="white"/>
<path d="M115.49 54.553L116.217 55.7723L124.429 54.4918L124.748 53.1099L115.49 54.553Z" fill="white"/>
<path d="M117.124 57.298L117.851 58.5174L123.706 57.6015L124.031 56.2188L117.124 57.298Z" fill="white"/>
<path d="M118.758 60.0493L119.485 61.2626L122.989 60.7165L123.304 59.3413L118.758 60.0493Z" fill="white"/>
<path d="M120.398 62.7941L121.125 64.0074L122.267 63.8326L122.587 62.4507L120.398 62.7941Z" fill="white"/>
<path d="M79.7024 48.7708L80.522 50.7224L81.0714 52.0312L81.7608 53.6761L82.3095 54.979L82.9921 56.6186L83.5415 57.9274L84.2302 59.5663L84.7796 60.8751L85.463 62.5207L86.0117 63.8236L86.7003 65.4625L87.2497 66.7713L87.8443 68.1964L88.4061 66.7534L88.9163 65.4327L89.5544 63.7727L90.0646 62.4521L90.7019 60.7861L91.2181 59.4647L91.8562 57.8047L92.3604 56.4848L93.0045 54.8241L93.5147 53.5034L94.1528 51.8434L94.6682 50.516L95.4253 48.5422L79.7024 48.7708Z" fill="#DBDBDB"/>
<path d="M80.5217 50.7225L81.0711 52.0313L94.1525 51.8435L94.6679 50.5161L80.5217 50.7225Z" fill="white"/>
<path d="M81.7616 53.6761L82.3102 54.979L93.0053 54.8241L93.5155 53.5034L81.7616 53.6761Z" fill="white"/>
<path d="M82.9915 56.6188L83.541 57.9277L91.8556 57.805L92.3598 56.4851L82.9915 56.6188Z" fill="white"/>
<path d="M84.2301 59.5667L84.7796 60.8755L90.7019 60.7865L91.2181 59.4651L84.2301 59.5667Z" fill="white"/>
<path d="M85.463 62.5209L86.0117 63.8237L89.5544 63.7729L90.0646 62.4522L85.463 62.5209Z" fill="white"/>
<path d="M86.6998 65.4626L87.2492 66.7714L88.4056 66.7535L88.9158 65.4329L86.6998 65.4626Z" fill="white"/>
<path d="M48.7683 45.163L49.2308 47.2329L49.5402 48.6208L49.9243 50.3591L50.2329 51.741L50.617 53.4793L50.9256 54.8612L51.309 56.5935L51.6176 57.9755L52.0024 59.7198L52.3111 61.1017L52.6951 62.84L53.0038 64.2219L53.341 65.7344L54.1491 64.4066L54.8809 63.1983L55.805 61.679L56.5427 60.4699L57.4662 58.9446L58.2039 57.7355L59.1281 56.2163L59.859 55.0019L60.7892 53.4819L61.5209 52.2736L62.4451 50.7543L63.188 49.5384L64.283 47.7293L48.7683 45.163Z" fill="#DBDBDB"/>
<path d="M49.2309 47.2328L49.5402 48.6207L62.4451 50.7542L63.188 49.5384L49.2309 47.2328Z" fill="white"/>
<path d="M49.9238 50.3592L50.2324 51.7411L60.7887 53.482L61.5204 52.2737L49.9238 50.3592Z" fill="white"/>
<path d="M50.6156 53.4795L50.9242 54.8614L59.1267 56.2165L59.8576 55.0021L50.6156 53.4795Z" fill="white"/>
<path d="M51.3083 56.5935L51.6169 57.9754L57.4655 58.9446L58.2032 57.7355L51.3083 56.5935Z" fill="white"/>
<path d="M52.0021 59.7196L52.3107 61.1016L55.8047 61.6789L56.5424 60.4698L52.0021 59.7196Z" fill="white"/>
<path d="M52.6948 62.8399L53.0035 64.2219L54.1489 64.4066L54.8806 63.1982L52.6948 62.8399Z" fill="white"/>
<path d="M19.1888 35.3409L19.2304 37.4578L19.2637 38.8806L19.2989 40.6568L19.3254 42.0744L19.3605 43.8506L19.393 45.2674L19.4282 47.0437L19.4607 48.4604L19.4967 50.2427L19.5232 51.6602L19.5583 53.4365L19.5908 54.8533L19.622 56.4044L20.6735 55.2654L21.6335 54.2234L22.8341 52.9132L23.7941 51.8711L25.0007 50.5602L25.9675 49.5234L27.1682 48.2132L28.1282 47.1711L29.3348 45.8601L30.2948 44.8181L31.4962 43.5139L32.4615 42.4651L33.8929 40.9062L19.1888 35.3409Z" fill="#A6A6A6"/>
<path d="M19.2305 37.4576L19.2638 38.8804L31.4963 43.5137L32.4616 42.4649L19.2305 37.4576Z" fill="white"/>
<path d="M19.3 40.6565L19.3265 42.0741L29.336 45.8598L30.296 44.8178L19.3 40.6565Z" fill="white"/>
<path d="M19.3616 43.8504L19.3941 45.2671L27.1692 48.2129L28.1292 47.1709L19.3616 43.8504Z" fill="white"/>
<path d="M19.429 47.043L19.4615 48.4597L25.0015 50.5595L25.9683 49.5227L19.429 47.043Z" fill="white"/>
<path d="M19.4977 50.2423L19.5242 51.6599L22.8351 52.9128L23.7952 51.8708L19.4977 50.2423Z" fill="white"/>
<path d="M19.5591 53.4362L19.5916 54.853L20.6742 55.2651L21.6342 54.2231L19.5591 53.4362Z" fill="white"/>
<path d="M203.95 18.5479C196.049 22.4786 187.915 25.9203 179.664 29.0537C171.412 32.1871 163.066 35.0091 154.605 37.4494C137.684 42.3418 120.341 45.8728 102.799 47.3433C85.2572 48.8138 67.517 48.2786 50.2625 44.8281C32.9314 41.413 16.3952 34.7753 1.51273 25.2599C8.82169 30.2343 16.6101 34.4646 24.7617 37.8877C28.8476 39.5794 32.9994 41.1165 37.2364 42.4111C41.4735 43.7057 45.7471 44.8066 50.0782 45.7356C54.4094 46.6646 58.7733 47.4188 63.1625 47.938C67.5517 48.4572 71.9663 48.8878 76.3874 49.0798C85.2284 49.4861 94.0866 49.3171 102.906 48.5739C111.718 47.7848 120.48 46.5198 129.156 44.7844C137.832 43.0793 146.422 40.9339 154.872 38.3608C171.777 33.1959 188.329 26.7828 203.95 18.5479Z" fill="#EBEBEB"/>
</svg>
