<svg width="209" height="80" viewBox="0 0 209 80" fill="none" xmlns="http://www.w3.org/2000/svg">
<path d="M8.08203 20.3645L22.4031 26.7361L7.32358 41.3434L8.08203 20.3645Z" fill="#C7C7C7"/>
<path d="M36.9727 32.5864L51.8346 37.5618L38.2221 53.5454L36.9727 32.5864Z" fill="#DBDBDB"/>
<path d="M66.9287 41.8005L82.2534 45.0842L70.5094 62.4886L66.9287 41.8005Z" fill="#A6A6A6"/>
<path d="M97.6578 47.4481L113.273 48.8663L103.706 67.5544L97.6578 47.4481Z" fill="#A6A6A6"/>
<path d="M128.824 48.812L144.465 47.8028L137.901 67.7449L128.824 48.812Z" fill="#EBEBEB"/>
<path d="M159.514 45.382L174.654 41.3136L172.138 62.1618L159.514 45.382Z" fill="#C7C7C7"/>
<path d="M189.264 35.4399L203.016 27.927L205.477 48.7774L189.264 35.4399Z" fill="#DBDBDB"/>
<path d="M36.9712 32.5919L35.52 34.1224L34.5451 35.154L33.3313 36.441L32.3632 37.4673L31.1427 38.7595L30.1745 39.7858L28.9547 41.072L27.9866 42.0984L26.772 43.3913L25.7979 44.4169L24.5841 45.7039L23.6159 46.7302L22.5564 47.8544L22.5388 46.3086L22.5286 44.8975L22.5151 43.1274L22.5048 41.7163L22.486 39.9394L22.4758 38.5283L22.463 36.7522L22.4528 35.3411L22.4332 33.5703L22.429 32.1599L22.4095 30.3891L22.394 28.9712L22.3809 26.8608L36.9712 32.5919Z" fill="#A6A6A6"/>
<path d="M35.5206 34.1224L34.5457 35.154L22.41 30.3891L22.3945 28.9712L35.5206 34.1224Z" fill="white"/>
<path d="M33.3311 36.4412L32.3629 37.4675L22.433 33.5705L22.4287 32.1602L33.3311 36.4412Z" fill="white"/>
<path d="M31.143 38.7597L30.1748 39.786L22.4634 36.7524L22.4531 35.3413L31.143 38.7597Z" fill="white"/>
<path d="M28.9555 41.0721L27.9873 42.0984L22.4868 39.9395L22.4766 38.5283L28.9555 41.0721Z" fill="white"/>
<path d="M26.7721 43.3914L25.7979 44.4169L22.5151 43.1274L22.5049 41.7163L26.7721 43.3914Z" fill="white"/>
<path d="M24.5848 45.7044L23.6166 46.7307L22.5395 46.3091L22.5293 44.8979L24.5848 45.7044Z" fill="white"/>
<path d="M66.928 41.8067L65.6412 43.4795L64.7821 44.6046L63.705 46.0122L62.8459 47.1374L61.7696 48.5389L60.9104 49.6641L59.8334 51.0717L58.975 52.1908L57.8972 53.6044L57.0329 54.7228L55.9618 56.1311L55.0974 57.2495L54.1649 58.4748L53.9881 56.9393L53.8305 55.54L53.6337 53.7772L53.4821 52.3786L53.2801 50.609L53.1225 49.2097L52.9258 47.4468L52.769 46.0415L52.5714 44.2846L52.4146 42.8793L52.2178 41.1165L52.061 39.7112L51.8213 37.6147L66.928 41.8067Z" fill="#EBEBEB"/>
<path d="M65.6417 43.4793L64.7826 44.6044L52.2183 41.1163L52.0615 39.7109L65.6417 43.4793Z" fill="white"/>
<path d="M63.7044 46.0118L62.8453 47.137L52.5709 44.2842L52.4141 42.8789L63.7044 46.0118Z" fill="white"/>
<path d="M61.7692 48.539L60.91 49.6641L52.9254 47.4468L52.7686 46.0415L61.7692 48.539Z" fill="white"/>
<path d="M59.8339 51.0715L58.9755 52.1907L53.2806 50.6088L53.123 49.2095L59.8339 51.0715Z" fill="white"/>
<path d="M57.8975 53.6042L57.0332 54.7227L53.634 53.777L53.4824 52.3784L57.8975 53.6042Z" fill="white"/>
<path d="M55.9614 56.1312L55.097 57.2496L53.9877 56.9394L53.8301 55.54L55.9614 56.1312Z" fill="white"/>
<path d="M97.6499 47.411L96.5641 49.2246L95.8394 50.4397L94.9365 51.9604L94.2119 53.1754L93.3029 54.6954L92.5783 55.9105L91.6753 57.4311L90.9507 58.6462L90.047 60.1729L89.3231 61.382L88.4134 62.9079L87.6896 64.117L86.902 65.4456L86.5509 63.9428L86.2325 62.5657L85.8308 60.8378L85.5176 59.4674L85.1167 57.7335L84.7923 56.3556L84.3958 54.6344L84.0774 53.2573L83.6757 51.5294L83.3625 50.159L82.9608 48.4311L82.6372 47.0472L82.1611 44.9939L97.6499 47.411Z" fill="#C7C7C7"/>
<path d="M96.5645 49.2245L95.8399 50.4396L82.9613 48.431L82.6377 47.0471L96.5645 49.2245Z" fill="white"/>
<path d="M94.9372 51.9601L94.2126 53.1751L83.6764 51.5291L83.3633 50.1587L94.9372 51.9601Z" fill="white"/>
<path d="M93.3036 54.6952L92.579 55.9102L84.3965 54.6342L84.0781 53.2571L93.3036 54.6952Z" fill="white"/>
<path d="M91.676 57.4307L90.9514 58.6458L85.1173 57.7331L84.793 56.3552L91.676 57.4307Z" fill="white"/>
<path d="M90.047 60.1723L89.3231 61.3814L85.8307 60.8372L85.5176 59.4668L90.047 60.1723Z" fill="white"/>
<path d="M88.4134 62.9076L87.6895 64.1167L86.5508 63.9425L86.2324 62.5654L88.4134 62.9076Z" fill="white"/>
<path d="M128.966 48.9334L128.149 50.8782L127.602 52.1824L126.915 53.8215L126.368 55.1198L125.688 56.7537L125.14 58.058L124.454 59.6911L123.907 60.9954L123.226 62.6352L122.679 63.9335L121.993 65.5666L121.445 66.8709L120.853 68.291L120.293 66.8531L119.784 65.537L119.148 63.8828L118.64 62.5668L118.005 60.9067L117.491 59.5899L116.855 57.9357L116.352 56.6204L115.71 54.9655L115.202 53.6495L114.566 51.9953L114.053 50.6725L113.298 48.7056L128.966 48.9334Z" fill="#DBDBDB"/>
<path d="M128.15 50.8784L127.603 52.1827L114.567 51.9955L114.053 50.6728L128.15 50.8784Z" fill="white"/>
<path d="M126.915 53.8214L126.368 55.1197L115.71 54.9653L115.202 53.6493L126.915 53.8214Z" fill="white"/>
<path d="M125.689 56.7539L125.142 58.0582L116.856 57.9359L116.354 56.6206L125.689 56.7539Z" fill="white"/>
<path d="M124.455 59.6913L123.907 60.9956L118.006 60.9069L117.491 59.5901L124.455 59.6913Z" fill="white"/>
<path d="M123.226 62.6353L122.679 63.9336L119.149 63.8829L118.641 62.5669L123.226 62.6353Z" fill="white"/>
<path d="M121.994 65.5669L121.446 66.8711L120.294 66.8533L119.785 65.5372L121.994 65.5669Z" fill="white"/>
<path d="M159.793 45.338L159.332 47.4007L159.023 48.7837L158.641 50.5159L158.333 51.893L157.95 53.6253L157.643 55.0023L157.261 56.7286L156.953 58.1057L156.57 59.8439L156.262 61.221L155.88 62.9532L155.572 64.3303L155.236 65.8375L154.431 64.5143L153.702 63.3102L152.781 61.7963L152.045 60.5914L151.125 59.0715L150.39 57.8666L149.469 56.3526L148.741 55.1425L147.814 53.6278L147.085 52.4237L146.164 50.9098L145.423 49.6982L144.332 47.8954L159.793 45.338Z" fill="#DBDBDB"/>
<path d="M159.331 47.4007L159.023 48.7838L146.163 50.9098L145.423 49.6982L159.331 47.4007Z" fill="white"/>
<path d="M158.641 50.5159L158.333 51.893L147.814 53.6278L147.085 52.4237L158.641 50.5159Z" fill="white"/>
<path d="M157.951 53.6255L157.643 55.0026L149.47 56.3529L148.741 55.1428L157.951 53.6255Z" fill="white"/>
<path d="M157.261 56.729L156.954 58.1061L151.126 59.0719L150.39 57.867L157.261 56.729Z" fill="white"/>
<path d="M156.571 59.8439L156.263 61.221L152.781 61.7963L152.046 60.5915L156.571 59.8439Z" fill="white"/>
<path d="M155.88 62.9533L155.572 64.3304L154.431 64.5144L153.702 63.3103L155.88 62.9533Z" fill="white"/>
<path d="M189.268 35.5501L189.226 37.6597L189.193 39.0775L189.158 40.8475L189.132 42.2601L189.097 44.0301L189.064 45.4419L189.029 47.212L188.997 48.6238L188.961 50.3998L188.935 51.8124L188.9 53.5824L188.867 54.9942L188.836 56.5399L187.788 55.405L186.832 54.3666L185.635 53.0609L184.679 52.0226L183.476 50.7162L182.513 49.683L181.316 48.3774L180.36 47.339L179.157 46.0326L178.201 44.9942L177.004 43.6945L176.042 42.6494L174.615 41.096L189.268 35.5501Z" fill="#A6A6A6"/>
<path d="M189.227 37.6597L189.194 39.0775L177.004 43.6946L176.042 42.6494L189.227 37.6597Z" fill="white"/>
<path d="M189.158 40.8475L189.132 42.2601L179.157 46.0326L178.201 44.9943L189.158 40.8475Z" fill="white"/>
<path d="M189.096 44.0298L189.064 45.4417L181.316 48.3771L180.359 47.3387L189.096 44.0298Z" fill="white"/>
<path d="M189.029 47.2116L188.997 48.6235L183.476 50.7158L182.513 49.6827L189.029 47.2116Z" fill="white"/>
<path d="M188.961 50.3997L188.934 51.8123L185.635 53.0609L184.678 52.0225L188.961 50.3997Z" fill="white"/>
<path d="M188.9 53.5825L188.868 54.9944L187.789 55.4051L186.832 54.3667L188.9 53.5825Z" fill="white"/>
<path d="M5.15402 18.8161C13.0274 22.733 21.1325 26.1626 29.3554 29.285C37.5783 32.4075 45.895 35.2197 54.3266 37.6514C71.1883 42.5267 88.4704 46.0453 105.951 47.5107C123.431 48.976 141.11 48.4427 158.304 45.0043C175.574 41.6011 192.053 34.9867 206.883 25.5046C199.6 30.4615 191.838 34.6771 183.715 38.0882C179.644 39.774 175.507 41.3057 171.284 42.5958C167.062 43.8858 162.803 44.9829 158.487 45.9087C154.171 46.8344 149.823 47.5859 145.449 48.1033C141.075 48.6207 136.676 49.0498 132.27 49.2411C123.46 49.646 114.633 49.4776 105.845 48.737C97.0636 47.9507 88.3314 46.6901 79.6864 44.9608C71.0408 43.2616 62.481 41.1237 54.06 38.5596C37.2143 33.4128 20.7202 27.0221 5.15402 18.8161Z" fill="#EBEBEB"/>
</svg>
