<svg width="18" height="24" viewBox="0 0 18 24" fill="none" xmlns="http://www.w3.org/2000/svg">
<path d="M17.9 5.67656L12.3219 0.09375H1.00156C0.504688 0.09375 0.101562 0.496875 0.101562 0.99375V16.9641H17.9V5.67656Z" fill="#EFF3F5"/>
<path d="M12.3203 4.77656C12.3203 5.27344 12.7234 5.67656 13.2203 5.67656H17.9031L12.3203 0.09375V4.77656Z" fill="#DBDFE0"/>
<path d="M0.109375 16.9609V23.0078C0.109375 23.5047 0.5125 23.9078 1.00938 23.9078H17.0078C17.5047 23.9078 17.9078 23.5047 17.9078 23.0078V16.9609H0.109375Z" fill="#FF6B6B"/>
<path d="M4.43408 15.9359C4.14814 15.9359 3.87158 15.8281 3.61845 15.6172C3.19189 15.2609 3.15908 14.8672 3.20126 14.6C3.40751 13.3953 5.64814 12.2937 6.95126 11.75C7.65908 9.97813 8.27314 7.89219 8.65283 6.32656C7.89345 4.7 7.62626 3.55156 7.86064 2.9C7.97783 2.57656 8.21689 2.36563 8.55439 2.29063L8.60126 2.28125L8.64814 2.28594C8.68564 2.29062 9.01845 2.34219 9.29033 2.70781C9.64189 3.18594 9.72158 3.95938 9.5247 5.00938C9.46845 5.30938 9.3747 5.74063 9.25283 6.25625C9.94658 7.7 10.9216 9.29375 11.7185 10.4C12.3841 10.3062 13.0169 10.2734 13.5513 10.3297C14.5497 10.4328 14.7606 10.8688 14.7981 11.1219C14.8544 11.4922 14.5825 11.8766 14.1185 12.0734C13.4763 12.3453 12.4263 12.275 11.5731 11.1688C11.5356 11.1219 11.4981 11.0703 11.4606 11.0188C10.3638 11.2016 9.08876 11.5484 7.79501 12.0313C7.65908 12.0828 7.52783 12.1344 7.39658 12.1859C6.52001 14.3328 5.6622 15.5656 4.84189 15.8609C4.71064 15.9125 4.57001 15.9359 4.43408 15.9359ZM6.6372 12.5094C4.77626 13.3484 3.85283 14.1781 3.76845 14.6984C3.7497 14.8109 3.7497 14.9844 3.98876 15.1812C4.20908 15.3641 4.42001 15.4109 4.65439 15.3266C5.30595 15.0922 5.9997 13.9672 6.6372 12.5094ZM12.1216 10.9297C12.7544 11.675 13.4669 11.7359 13.8981 11.5484C14.1231 11.4547 14.2497 11.2953 14.2356 11.2063C14.2216 11.1125 14.0106 10.9531 13.495 10.9016C13.1106 10.8641 12.6466 10.8734 12.1216 10.9297ZM9.04658 7.11406C8.76064 8.21563 8.37158 9.54219 7.91689 10.8266C7.8372 11.0469 7.7622 11.2578 7.68251 11.4641C8.6997 11.0891 9.92783 10.7234 11.095 10.5031C10.4669 9.60781 9.69345 8.36563 9.04658 7.11406ZM8.6247 2.87187C8.51689 2.90937 8.44658 2.97969 8.40439 3.10156C8.24033 3.55156 8.45595 4.4 8.87314 5.40313C8.91064 5.225 8.94345 5.06094 8.97158 4.91094C9.1872 3.74375 8.98095 3.24219 8.83564 3.05C8.75595 2.94219 8.67158 2.89062 8.6247 2.87187Z" fill="#FF6B6B"/>
<path d="M13.2375 20.0734H12.1641V18.9813H13.2375C13.4391 18.9813 13.6031 18.8172 13.6031 18.6156C13.6031 18.4141 13.4391 18.25 13.2375 18.25H11.8031C11.6016 18.25 11.4375 18.4141 11.4375 18.6156V22.2531C11.4375 22.4547 11.6016 22.6188 11.8031 22.6188C12.0047 22.6188 12.1688 22.4547 12.1688 22.2531V20.8H13.2422C13.4437 20.8 13.6078 20.6359 13.6078 20.4344C13.6031 20.2328 13.4391 20.0734 13.2375 20.0734Z" fill="#EFF3F5"/>
<path d="M5.50469 18.2539H4.76406C4.5625 18.2539 4.39844 18.418 4.39844 18.6195V22.257C4.39844 22.4586 4.5625 22.6227 4.76406 22.6227C4.96563 22.6227 5.12969 22.4586 5.12969 22.257V20.8039H5.50469C6.20781 20.8039 6.77969 20.232 6.77969 19.5289C6.77969 18.8258 6.20781 18.2539 5.50469 18.2539ZM5.50469 20.0727H5.12969V18.9805H5.50469C5.80469 18.9805 6.04844 19.2242 6.04844 19.5242C6.04844 19.8242 5.80469 20.0727 5.50469 20.0727Z" fill="#EFF3F5"/>
<path d="M8.64219 18.2539H7.68594C7.48438 18.2539 7.32031 18.418 7.32031 18.6195V22.257C7.32031 22.4586 7.48438 22.6227 7.68594 22.6227H8.64219C9.84687 22.6227 10.8266 21.643 10.8266 20.4383C10.8266 19.2289 9.84687 18.2539 8.64219 18.2539ZM8.64219 21.8867H8.05156V18.9758H8.64219C9.44375 18.9758 10.0953 19.6273 10.0953 20.4289C10.1 21.2352 9.44375 21.8867 8.64219 21.8867Z" fill="#EFF3F5"/>
</svg>
