<svg width="16" height="17" viewBox="0 0 16 17" fill="none" xmlns="http://www.w3.org/2000/svg">
<path d="M8.66674 1.16675C8.66674 0.989944 8.73698 0.820375 8.862 0.69535C8.98703 0.570326 9.15659 0.500088 9.33341 0.500088C11.1009 0.502029 12.7955 1.20503 14.0453 2.45485C15.2951 3.70468 15.9981 5.39924 16.0001 7.16676C16.0001 7.34357 15.9298 7.51314 15.8048 7.63816C15.6798 7.76318 15.5102 7.83342 15.3334 7.83342C15.1566 7.83342 14.987 7.76318 14.862 7.63816C14.737 7.51314 14.6667 7.34357 14.6667 7.16676C14.6652 5.75276 14.1027 4.39712 13.1029 3.39727C12.103 2.39742 10.7474 1.83501 9.33341 1.83342C9.15659 1.83342 8.98703 1.76318 8.862 1.63816C8.73698 1.51314 8.66674 1.34357 8.66674 1.16675ZM9.33341 4.50009C10.0406 4.50009 10.7189 4.78104 11.219 5.28114C11.7191 5.78123 12.0001 6.45951 12.0001 7.16676C12.0001 7.34357 12.0703 7.51314 12.1953 7.63816C12.3204 7.76318 12.4899 7.83342 12.6667 7.83342C12.8435 7.83342 13.0131 7.76318 13.1381 7.63816C13.2632 7.51314 13.3334 7.34357 13.3334 7.16676C13.3323 6.10621 12.9106 5.08941 12.1607 4.3395C11.4107 3.58958 10.3939 3.16781 9.33341 3.16675C9.15659 3.16675 8.98703 3.23699 8.862 3.36202C8.73698 3.48704 8.66674 3.65661 8.66674 3.83342C8.66674 4.01023 8.73698 4.1798 8.862 4.30483C8.98703 4.42985 9.15659 4.50009 9.33341 4.50009ZM15.3954 11.6594C15.7817 12.0468 15.9987 12.5716 15.9987 13.1188C15.9987 13.6659 15.7817 14.1907 15.3954 14.5781L14.7887 15.2774C9.32874 20.5048 -3.95793 7.22142 1.18874 1.74409L1.95541 1.07742C2.34325 0.701873 2.86336 0.494121 3.40321 0.499111C3.94306 0.504102 4.45924 0.721434 4.84007 1.10409C4.86074 1.12475 6.09607 2.72942 6.09607 2.72942C6.46263 3.11451 6.66668 3.62604 6.66581 4.15769C6.66494 4.68934 6.45922 5.2002 6.09141 5.58409L5.31941 6.55476C5.74664 7.59283 6.37478 8.53625 7.16774 9.33082C7.96071 10.1254 8.90286 10.7554 9.94007 11.1848L10.9167 10.4081C11.3007 10.0406 11.8114 9.83509 12.3429 9.83434C12.8744 9.8336 13.3858 10.0376 13.7707 10.4041C13.7707 10.4041 15.3747 11.6388 15.3954 11.6594ZM14.4781 12.6288C14.4781 12.6288 12.8827 11.4014 12.8621 11.3808C12.7247 11.2446 12.5391 11.1682 12.3457 11.1682C12.1523 11.1682 11.9667 11.2446 11.8294 11.3808C11.8114 11.3994 10.4667 12.4708 10.4667 12.4708C10.3761 12.5429 10.2683 12.5902 10.1538 12.6079C10.0394 12.6257 9.92229 12.6133 9.81407 12.5721C8.47038 12.0718 7.2499 11.2886 6.2353 10.2755C5.22069 9.26237 4.43567 8.04304 3.93341 6.70009C3.88887 6.59039 3.87435 6.47081 3.89134 6.35365C3.90833 6.23648 3.95621 6.12595 4.03007 6.03342C4.03007 6.03342 5.10141 4.68809 5.11941 4.67076C5.25558 4.53341 5.33199 4.34783 5.33199 4.15442C5.33199 3.96101 5.25558 3.77543 5.11941 3.63809C5.09874 3.61809 3.87141 2.02142 3.87141 2.02142C3.73201 1.89643 3.55007 1.82949 3.3629 1.83432C3.17573 1.83915 2.9975 1.9154 2.86474 2.04742L2.09807 2.71409C-1.66326 7.23676 9.85074 18.1121 13.8141 14.3668L14.4214 13.6668C14.5637 13.5349 14.6492 13.3529 14.6598 13.1592C14.6704 12.9655 14.6052 12.7753 14.4781 12.6288Z" fill="#757575"/>
</svg>
