<svg width="18" height="18" viewBox="0 0 18 18" fill="none" xmlns="http://www.w3.org/2000/svg">
<path d="M12.7514 9C12.7514 9.391 12.4341 9.70833 12.0431 9.70833C11.6521 9.70833 11.3348 9.391 11.3348 9C11.3348 8.609 11.6521 8.29167 12.0431 8.29167C12.4341 8.29167 12.7514 8.609 12.7514 9ZM4.95975 4.04167C5.35075 4.04167 5.66808 3.72504 5.66808 3.33333C5.66808 2.55204 6.30346 1.91667 7.08475 1.91667C7.86604 1.91667 8.50142 2.55204 8.50142 3.33333C8.50142 3.72504 8.81875 4.04167 9.20975 4.04167C9.60075 4.04167 9.91809 3.72504 9.91809 3.33333C9.91809 1.77075 8.64733 0.5 7.08475 0.5C5.52217 0.5 4.25142 1.77075 4.25142 3.33333C4.25142 3.72504 4.56875 4.04167 4.95975 4.04167ZM17.0014 9.70833V11.125C17.0014 11.9084 16.4716 12.3851 15.8908 12.5091C15.4225 13.6807 14.5648 14.6702 13.4598 15.3098V15.375C13.4598 16.5466 12.5063 17.5 11.3348 17.5C10.4111 17.5 9.62342 16.9078 9.33088 16.0833H7.67125C7.37871 16.9078 6.59104 17.5 5.66738 17.5C4.49579 17.5 3.54238 16.5466 3.54238 15.375V15.319C1.67592 14.2431 0.580125 12.2187 0.721083 10.0413C0.765708 9.3485 0.940667 8.69046 1.22046 8.08908C0.500083 7.74837 0 7.01525 0 6.16667C0 4.99508 0.953417 4.04167 2.125 4.04167C2.516 4.04167 2.83333 4.35829 2.83333 4.75C2.83333 5.14171 2.516 5.45833 2.125 5.45833C1.734 5.45833 1.41667 5.77567 1.41667 6.16667C1.41667 6.51446 1.66883 6.80417 1.99963 6.86367C3.077 5.57237 4.72883 4.75 6.56342 4.75H10.3622C10.8814 3.70308 11.8511 2.97067 13.1438 2.66325C13.5625 2.56479 13.996 2.66112 14.3345 2.92817C14.6781 3.20017 14.8757 3.60675 14.8757 4.0445V6.67596C15.3064 7.16542 15.6506 7.725 15.89 8.32425C16.4716 8.44821 17.0007 8.92492 17.0007 9.70833H17.0014ZM15.5848 9.70833H15.3765C15.0634 9.70833 14.7872 9.50221 14.6979 9.20187C14.5038 8.55021 14.1454 7.94387 13.6616 7.44733C13.532 7.31487 13.4598 7.13708 13.4598 6.95292V4.0445C12.7691 4.20883 11.8554 4.63242 11.5019 5.69846C11.402 5.99808 11.1102 6.20421 10.8007 6.18296C10.7525 6.18083 6.56483 6.16738 6.56483 6.16738C4.22521 6.16738 2.27942 7.90917 2.13563 10.1333C2.02229 11.8822 2.97217 13.4993 4.556 14.2523C4.80321 14.3699 4.95975 14.6192 4.95975 14.8919V15.3757C4.95975 15.7667 5.27779 16.084 5.66808 16.084C6.05838 16.084 6.37642 15.7667 6.37642 15.3757C6.37642 14.9847 6.69375 14.6674 7.08475 14.6674H9.91809C10.3091 14.6674 10.6264 14.984 10.6264 15.3757C10.6264 15.7674 10.9445 16.084 11.3348 16.084C11.725 16.084 12.0431 15.7667 12.0431 15.3757V14.8841C12.0431 14.6114 12.1996 14.3628 12.4461 14.2452C13.5384 13.7239 14.3586 12.7712 14.6979 11.6329C14.7872 11.3325 15.0634 11.1264 15.3765 11.1264H15.5848V9.70975V9.70833Z" fill="#757575"/>
</svg>
