<svg width="305" height="185" viewBox="0 0 305 185" fill="none" xmlns="http://www.w3.org/2000/svg">
<mask id="mask0_703_2128" style="mask-type:alpha" maskUnits="userSpaceOnUse" x="0" y="0" width="305" height="186">
<rect y="0.562988" width="305" height="184.437" fill="white"/>
</mask>
<g mask="url(#mask0_703_2128)">
<path d="M48.6715 168.381H6.81152V239.483H48.6715V168.381Z" fill="#FFFCE7"/>
<path opacity="0.1" d="M48.6716 168.381H37.4014V239.483H48.6716V168.381Z" fill="#FFCDCD"/>
<path d="M99.9068 154.668H58.0469V239.483H99.9068V154.668Z" fill="#FFFCE7"/>
<path opacity="0.1" d="M99.9069 154.668H88.6367V239.483H99.9069V154.668Z" fill="#FFCDCD"/>
<path d="M151.142 142.326H109.282V239.482H151.142V142.326Z" fill="#FFFCE7"/>
<path opacity="0.1" d="M151.141 142.326H139.871V239.482H151.141V142.326Z" fill="#FFCDCD"/>
<path d="M202.377 128.75H160.517V239.482H202.377V128.75Z" fill="#FFFCE7"/>
<path opacity="0.1" d="M202.372 128.75H191.101V239.482H202.372V128.75Z" fill="#FFCDCD"/>
<path d="M253.589 112.843H211.729V239.481H253.589V112.843Z" fill="#FFFCE7"/>
<path opacity="0.1" d="M253.584 112.843H242.314V239.481H253.584V112.843Z" fill="#FFCDCD"/>
<path d="M304.827 92.2751H262.967V239.483H304.827V92.2751Z" fill="#FFFCE7"/>
<path opacity="0.1" d="M304.82 92.2751H293.55V239.483H304.82V92.2751Z" fill="#FFCDCD"/>
<path d="M7.53822 150.837C5.54332 150.837 4.46093 150.808 4.37842 150.803L4.64537 139.458C5.32004 139.458 72.9426 141.284 161.339 113.24C216.978 95.5982 258.186 63.1517 277.795 45.3799L283.746 54.348C263.559 72.6361 221.133 106.03 163.883 124.199C84.8926 149.237 22.0607 150.837 7.53822 150.837Z" fill="#FBFBFB"/>
<path d="M286.706 65.9481L296.729 34.0972L268.116 39.8717L286.706 65.9481Z" fill="#FBFBFB"/>
</g>
</svg>
