<svg width="18" height="16" viewBox="0 0 18 16" fill="none" xmlns="http://www.w3.org/2000/svg">
<path d="M16.6035 5.81843C16.2617 5.42443 15.8391 5.1085 15.3645 4.89201C14.8899 4.67553 14.3743 4.56355 13.8527 4.56366H10.9444L11.1893 3.07559C11.276 2.55157 11.1714 2.01385 10.8947 1.5605C10.6179 1.10716 10.1874 0.768401 9.68172 0.606018C9.176 0.443634 8.62877 0.468445 8.13982 0.675925C7.65088 0.883405 7.25281 1.25973 7.01821 1.73626L5.62273 4.56366H3.64545C2.67897 4.56482 1.75241 4.94927 1.069 5.63267C0.385602 6.31607 0.00115769 7.24263 0 8.20911L0 11.8546C0.00115769 12.821 0.385602 13.7476 1.069 14.431C1.75241 15.1144 2.67897 15.4988 3.64545 15.5H13.3423C14.2198 15.4964 15.0668 15.178 15.7292 14.6026C16.3917 14.0272 16.8256 13.2332 16.952 12.3649L17.4661 8.71947C17.5384 8.20235 17.4989 7.67572 17.3501 7.17521C17.2013 6.6747 16.9467 6.212 16.6035 5.81843ZM1.45818 11.8546V8.20911C1.45818 7.62901 1.68862 7.07267 2.09881 6.66248C2.50901 6.25229 3.06535 6.02184 3.64545 6.02184H5.10362V14.0418H3.64545C3.06535 14.0418 2.50901 13.8114 2.09881 13.4012C1.68862 12.991 1.45818 12.4347 1.45818 11.8546ZM16.0188 8.5146L15.5041 12.16C15.4288 12.6806 15.1692 13.1569 14.7725 13.5022C14.3758 13.8475 13.8683 14.039 13.3423 14.0418H6.5618V5.82791C6.63051 5.76804 6.68739 5.69583 6.72949 5.61501L8.32547 2.3815C8.38532 2.27354 8.46993 2.18133 8.57236 2.11244C8.67478 2.04355 8.79209 1.99994 8.91465 1.98521C9.0372 1.97048 9.1615 1.98504 9.27734 2.02769C9.39317 2.07035 9.49723 2.13988 9.58096 2.23058C9.65259 2.31388 9.70496 2.41195 9.73432 2.51782C9.76369 2.62368 9.76932 2.73472 9.75084 2.84301L9.36588 5.1761C9.34898 5.28034 9.35493 5.38702 9.38332 5.48874C9.41171 5.59046 9.46185 5.68479 9.53029 5.76522C9.59872 5.84566 9.68382 5.91026 9.77968 5.95457C9.87554 5.99888 9.97988 6.02183 10.0855 6.02184H13.8527C14.1658 6.0218 14.4752 6.08897 14.7601 6.2188C15.045 6.34864 15.2986 6.53812 15.504 6.77443C15.7093 7.01075 15.8616 7.2884 15.9504 7.58861C16.0392 7.88882 16.0625 8.20459 16.0188 8.5146Z" fill="#757575"/>
</svg>
