<svg width="17" height="16" viewBox="0 0 17 16" fill="none" xmlns="http://www.w3.org/2000/svg">
<path fill-rule="evenodd" clip-rule="evenodd" d="M14.1421 2.32533C12.6448 0.826667 10.6541 0.000666667 8.53342 0C4.16342 0 0.606753 3.556 0.604753 7.928C0.604086 9.32533 0.969419 10.6893 1.66342 11.892L0.538086 16L4.74075 14.8973C5.89875 15.5293 7.20275 15.862 8.52942 15.8627H8.53275C12.9021 15.8627 16.4594 12.306 16.4614 7.934C16.4628 5.816 15.6388 3.82333 14.1421 2.32533ZM8.53342 14.5233H8.53075C7.34809 14.5233 6.18875 14.2053 5.17675 13.6047L4.93609 13.462L2.44209 14.116L3.10809 11.684L2.95142 11.4347C2.29142 10.3853 1.94342 9.17267 1.94409 7.928C1.94542 4.29467 4.90209 1.33867 8.53675 1.33867C10.2968 1.33867 11.9514 2.02533 13.1954 3.27067C14.4394 4.51667 15.1241 6.172 15.1234 7.93267C15.1214 11.5673 12.1654 14.5233 8.53342 14.5233ZM12.1481 9.588C11.9501 9.48867 10.9761 9.00933 10.7941 8.94333C10.6128 8.87733 10.4808 8.844 10.3481 9.042C10.2154 9.24 9.83675 9.68667 9.72075 9.81933C9.60542 9.95133 9.48942 9.968 9.29142 9.86867C9.09342 9.76933 8.45475 9.56067 7.69809 8.88533C7.10942 8.36 6.71142 7.71133 6.59609 7.51267C6.48075 7.314 6.58409 7.20733 6.68275 7.10867C6.77209 7.02 6.88075 6.87733 6.98009 6.76133C7.08009 6.64667 7.11275 6.564 7.17942 6.43133C7.24542 6.29933 7.21275 6.18333 7.16275 6.084C7.11275 5.98533 6.71675 5.01 6.55209 4.61333C6.39142 4.22667 6.22809 4.27933 6.10609 4.27333C5.99075 4.26733 5.85875 4.26667 5.72609 4.26667C5.59409 4.26667 5.37942 4.316 5.19809 4.51467C5.01675 4.71333 4.50475 5.19267 4.50475 6.16733C4.50475 7.14267 5.21475 8.08467 5.31342 8.21667C5.41209 8.34867 6.71009 10.35 8.69742 11.208C9.17009 11.412 9.53942 11.534 9.82675 11.6253C10.3014 11.776 10.7334 11.7547 11.0748 11.704C11.4554 11.6473 12.2468 11.2247 12.4121 10.762C12.5774 10.2993 12.5774 9.902 12.5274 9.82C12.4781 9.73667 12.3461 9.68733 12.1481 9.588Z" fill="#04B23D"/>
</svg>
